<?xml version="1.0" standalone="no"?>
<!DOCTYPE svg PUBLIC "-//W3C//DTD SVG 20010904//EN"
 "http://www.w3.org/TR/2001/REC-SVG-20010904/DTD/svg10.dtd">
<svg version="1.0" xmlns="http://www.w3.org/2000/svg"
 width="1024.000000pt" height="1024.000000pt" viewBox="0 0 1024.000000 1024.000000"
 preserveAspectRatio="xMidYMid meet">

<g transform="translate(0.000000,1024.000000) scale(0.100000,-0.100000)"
fill="#000000" stroke="none">
<path d="M4905 8559 c-211 -19 -410 -71 -618 -165 -262 -117 -480 -261 -663
-437 -158 -152 -324 -370 -324 -425 0 -20 60 -114 76 -119 5 -2 32 37 58 87
118 225 381 484 658 651 113 68 298 157 383 184 39 12 78 26 89 30 43 18 6
-16 -79 -73 -144 -96 -402 -367 -498 -524 l-42 -68 -158 0 -157 0 -30 -47
c-33 -51 -37 -68 -17 -76 6 -2 72 -1 145 2 74 3 136 3 138 0 2 -4 -16 -49 -40
-100 -69 -150 -156 -438 -156 -517 0 -50 76 -211 112 -236 20 -14 55 -15 281
-10 l258 6 11 -30 12 -30 64 24 c72 27 149 30 490 17 l182 -6 0 -81 c1 -80 1
-81 46 -141 25 -33 48 -60 52 -60 4 0 9 67 12 150 5 149 5 149 30 155 14 3 26
13 28 22 3 14 -9 16 -85 15 -73 -1 -106 4 -194 31 -105 31 -111 32 -303 32
-165 0 -198 2 -202 15 -17 44 58 558 100 682 20 59 27 69 52 74 91 20 441 -2
451 -28 5 -13 41 -31 91 -47 19 -6 22 -2 28 31 l6 38 231 -5 c128 -3 233 -5
233 -5 5 0 54 251 54 275 0 40 -126 281 -217 413 -41 60 -73 111 -70 113 5 5
165 -88 287 -168 121 -79 246 -184 310 -260 100 -118 173 -219 175 -240 1 -11
25 -50 54 -88 55 -73 78 -129 152 -380 34 -114 99 -356 99 -369 0 -6 49 68 65
99 8 16 15 47 15 70 0 51 -48 241 -94 375 -19 55 -37 115 -41 133 l-7 33 131
-3 c72 -2 131 -2 131 0 0 11 -44 86 -60 102 -18 18 -34 20 -155 20 l-135 0
-56 86 c-156 242 -335 419 -560 552 -37 22 -38 23 -9 17 68 -14 314 -127 440
-203 240 -144 478 -369 612 -578 32 -49 73 -109 90 -133 18 -25 40 -67 49 -95
9 -28 40 -98 69 -156 67 -134 114 -288 121 -400 7 -101 -18 -209 -85 -379 -44
-114 -62 -138 -128 -177 -29 -16 -43 -32 -43 -46 0 -11 18 -60 40 -109 50
-110 59 -153 60 -255 0 -127 -46 -248 -129 -338 -46 -51 -223 -160 -316 -196
-84 -33 -98 -35 -200 -34 -60 0 -137 6 -170 13 -91 19 -232 91 -287 147 -43
42 -48 53 -54 106 -6 54 -8 58 -28 52 -38 -12 -77 -35 -82 -48 -8 -20 22 -153
40 -181 22 -34 210 -164 268 -187 80 -30 232 -50 343 -45 78 3 121 11 195 36
143 49 310 150 372 227 147 181 278 455 343 719 32 130 36 261 18 535 -14 199
-36 303 -108 505 -170 480 -450 831 -882 1108 -399 255 -855 360 -1368 316z
m391 -237 c95 -107 147 -187 224 -339 61 -124 100 -226 100 -266 l0 -24 -212
-6 c-117 -3 -214 -4 -217 -2 -3 4 -5 611 -2 707 1 40 19 29 107 -70z m-456 3
c-88 -88 -206 -293 -296 -515 l-42 -105 -203 -7 c-112 -4 -205 -5 -207 -3 -11
11 101 165 188 259 86 91 265 240 380 316 98 65 204 120 230 120 8 0 -15 -29
-50 -65z m240 -285 l0 -350 -217 0 c-120 0 -224 4 -232 9 -18 12 132 321 225
462 71 108 181 229 208 229 14 0 16 -34 16 -350z m-610 -457 c0 -1 -6 -22 -14
-45 -40 -125 -81 -379 -108 -673 -2 -21 -10 -31 -28 -36 -33 -9 -309 -11 -443
-2 l-107 6 0 44 c0 56 61 301 100 398 34 86 115 261 134 290 13 19 24 20 240
20 124 0 226 -1 226 -2z m2741 -1141 c-19 -35 -89 -307 -100 -392 -15 -107
-21 -131 -31 -125 -4 2 -10 24 -14 47 -4 24 -25 94 -46 156 -22 62 -40 119
-40 125 0 7 15 -6 33 -27 l33 -39 23 31 c12 17 33 57 48 89 34 77 96 178 101
165 2 -6 -1 -19 -7 -30z"/>
<path d="M5805 7883 c-3 -21 -24 -112 -45 -203 -54 -224 -64 -290 -57 -385 10
-144 65 -260 194 -409 71 -82 106 -107 124 -89 15 15 15 290 0 373 -7 41 -28
140 -47 218 -45 185 -42 208 13 111 78 -140 121 -315 132 -548 5 -105 9 -126
24 -135 15 -9 22 -6 42 19 29 35 102 253 111 329 8 70 -11 203 -42 284 -33 88
-124 223 -208 310 -64 67 -196 162 -224 162 -6 0 -14 -17 -17 -37z"/>
<path d="M4721 7359 c37 -213 43 -238 84 -319 39 -76 96 -133 177 -172 72 -35
133 -43 215 -27 38 7 74 12 81 12 19 0 15 11 -26 58 -21 24 -78 94 -126 154
-48 61 -116 145 -151 188 -36 43 -65 82 -65 87 0 15 113 -66 185 -132 35 -33
112 -120 171 -194 102 -130 107 -135 125 -118 46 42 56 191 19 289 -18 47 -40
77 -104 141 -69 69 -93 86 -159 113 -102 42 -227 69 -353 77 l-102 7 29 -164z"/>
<path d="M3240 7450 c-37 -51 -118 -231 -156 -345 -20 -60 -47 -173 -60 -250
-21 -122 -25 -176 -26 -415 l-2 -275 31 -115 c106 -388 268 -677 427 -757 17
-8 68 -38 113 -65 95 -58 239 -103 361 -113 94 -8 259 15 335 46 65 28 213
125 238 158 17 21 18 27 6 45 -8 12 -25 27 -39 35 -23 13 -33 10 -159 -51
-198 -98 -276 -110 -472 -77 -74 13 -202 67 -283 120 -82 53 -185 164 -220
236 -15 31 -30 79 -32 108 -6 68 29 207 66 258 15 22 39 57 54 80 l27 40 -32
45 c-18 24 -48 57 -69 73 -49 40 -82 99 -128 232 -85 247 -92 309 -55 471 29
122 61 205 133 339 34 63 34 91 1 159 -26 50 -34 53 -59 18z m-147 -1082 c19
-40 45 -93 56 -118 30 -66 64 -99 95 -93 23 5 26 2 26 -25 0 -16 -14 -61 -31
-98 -17 -38 -37 -84 -45 -103 -8 -18 -16 -32 -18 -30 -2 2 -9 46 -15 98 -8 62
-24 125 -47 185 -37 95 -78 256 -64 256 4 0 23 -33 43 -72z"/>
<path d="M6834 7277 c-18 -23 -54 -80 -82 -127 -161 -274 -243 -456 -279 -615
-34 -149 -18 -423 38 -680 27 -122 49 -293 49 -383 0 -71 1 -73 23 -66 37 11
93 42 107 58 15 19 9 118 -20 314 -30 208 -41 263 -63 337 -18 59 -22 94 -22
220 0 148 1 151 39 260 21 61 54 144 73 185 46 101 148 271 201 333 35 40 42
55 37 76 -8 35 -55 131 -63 131 -4 0 -21 -20 -38 -43z"/>
<path d="M3322 7226 c-44 -86 -42 -104 17 -165 52 -53 144 -221 176 -321 22
-68 49 -122 69 -139 8 -7 27 -49 43 -94 26 -77 28 -91 28 -252 l0 -170 -48
-184 c-38 -145 -77 -356 -77 -412 0 -8 135 -89 149 -89 7 0 11 39 11 111 0 97
6 140 50 335 65 292 75 378 60 508 -18 163 -37 220 -136 423 -52 105 -94 194
-94 198 0 25 -193 315 -210 315 -3 0 -20 -29 -38 -64z"/>
<path d="M6931 7058 c-7 -12 -13 -40 -13 -62 1 -22 -4 -44 -11 -48 -8 -5 -8
-13 1 -33 15 -32 15 -109 1 -191 -9 -54 -8 -72 6 -118 9 -29 25 -66 36 -82
l18 -28 27 58 c15 32 34 100 42 150 14 84 14 100 0 173 -16 79 -64 194 -83
200 -6 2 -16 -7 -24 -19z"/>
<path d="M3239 6983 c-21 -42 -24 -62 -24 -168 0 -114 2 -126 43 -251 26 -79
55 -148 74 -173 l31 -42 18 41 c26 58 79 245 79 278 0 15 -12 52 -27 82 l-27
55 -6 -97 c-7 -100 -11 -115 -29 -104 -18 12 -30 77 -40 222 -13 201 -44 253
-92 157z"/>
<path d="M5780 6850 l0 -30 -135 0 -134 0 6 -32 c13 -72 27 -78 183 -78 l98 0
4 -262 c3 -217 6 -269 20 -300 15 -33 15 -43 3 -95 -18 -75 -19 -137 -2 -130
6 2 36 10 66 18 32 8 59 22 67 34 21 33 93 263 113 365 40 195 69 440 52 440
-5 0 -31 -21 -56 -46 l-46 -45 -20 -131 c-25 -158 -60 -285 -100 -354 -29 -52
-59 -85 -59 -66 0 5 6 15 14 21 34 29 66 259 66 481 0 92 -2 101 -27 132 -42
52 -96 108 -105 108 -4 0 -8 -13 -8 -30z"/>
<path d="M6799 6830 c-91 -121 -91 -229 1 -410 18 -36 38 -80 44 -98 l12 -34
42 46 c54 58 54 83 2 185 -47 94 -58 137 -68 256 l-7 90 -26 -35z"/>
<path d="M5303 6813 c5 -17 64 -153 107 -248 95 -208 132 -306 176 -460 19
-65 39 -124 44 -129 6 -6 10 -16 10 -23 0 -7 -51 38 -112 100 -100 100 -124
120 -207 161 -51 25 -107 46 -123 46 -28 0 -30 -2 -24 -27 12 -48 39 -76 151
-153 102 -70 131 -98 242 -236 l32 -39 34 36 c18 20 43 40 54 43 17 5 21 18
26 71 10 105 -19 230 -108 460 -85 221 -153 332 -234 384 -54 35 -76 39 -68
14z"/>
<path d="M6246 6773 c-30 -31 -53 -60 -50 -65 9 -14 240 -10 251 5 10 13 43
97 43 110 0 4 -42 7 -94 7 l-94 0 -56 -57z"/>
<path d="M4505 6614 c-153 -28 -424 -109 -432 -130 -6 -17 64 -143 123 -218
54 -69 112 -112 229 -170 126 -63 202 -79 345 -73 101 4 124 8 190 36 41 17
93 46 114 64 33 28 38 37 32 60 -12 50 -119 84 -387 122 -183 26 -250 42 -309
75 l-35 19 62 1 c82 0 303 -25 487 -55 81 -14 153 -25 158 -25 19 0 -2 64 -37
116 -109 159 -298 221 -540 178z"/>
<path d="M3506 6518 c-15 -45 -40 -110 -56 -144 -17 -34 -30 -71 -30 -83 0
-23 55 -91 75 -91 17 0 61 68 74 116 22 78 4 259 -28 278 -4 3 -20 -31 -35
-76z"/>
<path d="M6671 6562 c-7 -13 -17 -64 -22 -113 -9 -90 -3 -142 31 -268 l11 -43
55 55 55 55 -17 39 c-9 21 -36 96 -59 168 -38 118 -43 128 -54 107z"/>
<path d="M2535 6483 c29 -7 65 -43 65 -65 0 -11 -5 -29 -11 -41 -10 -21 -10
-21 5 -3 9 11 16 30 16 41 0 30 -44 75 -72 74 -20 -1 -21 -2 -3 -6z"/>
<path d="M2484 6458 l-19 -23 23 19 c21 18 27 26 19 26 -2 0 -12 -10 -23 -22z"/>
<path d="M7656 6459 c-14 -11 -26 -31 -26 -43 0 -25 35 -76 51 -76 6 0 3 8 -7
18 -17 16 -16 17 14 20 21 2 30 7 26 14 -5 7 -1 9 9 5 9 -3 23 0 31 8 12 12
15 12 19 -5 3 -10 -2 -29 -11 -42 -15 -23 -15 -23 11 1 34 30 34 60 2 95 -30
33 -81 35 -119 5z m18 -34 c-4 -8 -13 -15 -21 -15 -13 0 -13 3 -3 15 7 8 16
15 21 15 5 0 6 -7 3 -15z"/>
<path d="M6760 6100 c-30 -22 -61 -40 -67 -40 -17 0 -16 -13 4 -77 19 -60 19
-60 92 -8 44 32 51 42 51 70 0 42 -11 95 -19 95 -3 0 -31 -18 -61 -40z"/>
<path d="M3440 6045 c-30 -62 -24 -83 34 -117 27 -16 50 -27 52 -26 9 9 44
102 44 116 0 19 -70 72 -93 72 -8 0 -25 -20 -37 -45z"/>
<path d="M5119 6038 c-28 -20 -35 -31 -39 -68 -4 -38 -9 -45 -35 -52 -16 -4
-118 -8 -225 -8 -107 1 -201 1 -207 0 -7 0 -13 -11 -13 -24 0 -46 92 -65 313
-66 l167 0 0 -150 0 -150 26 -17 c26 -17 27 -17 56 16 28 31 29 38 27 105 -2
39 -2 99 -1 134 l2 62 140 0 c77 0 140 2 140 5 0 17 -42 83 -55 89 -9 3 -63 6
-120 6 l-104 0 -3 67 c-3 79 -15 87 -69 51z m326 -179 c8 -23 1 -34 -14 -24
-13 8 -15 45 -2 45 5 0 13 -9 16 -21z"/>
<path d="M4323 6000 c7 -61 12 -70 38 -70 11 0 35 -7 54 -14 l35 -15 0 52 0
52 -53 23 c-77 33 -81 31 -74 -28z"/>
<path d="M6286 5949 c-44 -5 -105 -13 -135 -19 -72 -14 -304 -83 -404 -121
-43 -16 -84 -29 -92 -29 -7 0 -26 -10 -42 -23 -15 -12 -77 -52 -137 -87 -94
-56 -123 -80 -210 -175 -212 -231 -312 -328 -396 -384 -169 -114 -300 -176
-436 -206 -43 -10 -114 -26 -156 -36 -61 -15 -87 -17 -128 -9 -67 13 -171 68
-242 129 -81 69 -112 86 -209 114 -48 14 -97 30 -109 37 -31 16 -32 10 -9 -37
13 -27 57 -72 132 -134 164 -138 203 -166 303 -215 119 -60 177 -66 289 -30
44 14 109 30 145 35 74 12 184 47 248 80 153 78 332 197 354 236 4 6 32 31 62
55 31 23 98 92 150 154 125 147 196 214 286 269 127 78 317 163 420 187 52 13
106 29 120 36 36 17 159 34 269 37 l93 2 -6 54 c-12 97 -9 96 -160 80z"/>
<path d="M3832 5934 c-5 -11 -13 -42 -17 -70 l-6 -51 118 -6 c235 -10 597
-133 783 -265 36 -25 109 -89 162 -140 l97 -94 29 23 c16 13 40 39 55 57 l26
33 -80 72 c-189 171 -351 268 -559 337 -166 55 -395 107 -507 116 -83 6 -92 5
-101 -12z"/>
<path d="M6785 5888 l-56 -53 10 -50 c5 -27 15 -90 22 -140 7 -49 15 -81 17
-71 2 10 13 28 23 39 47 51 64 107 64 216 0 70 -4 105 -11 108 -7 2 -37 -20
-69 -49z"/>
<path d="M3396 5859 c-11 -58 -6 -122 15 -183 22 -62 48 -110 56 -102 2 2 10
44 18 92 7 49 17 108 20 131 l7 41 -51 26 c-27 14 -52 26 -54 26 -3 0 -7 -14
-11 -31z"/>
<path d="M6353 5735 c-14 -10 -25 -33 -32 -68 -14 -74 -24 -334 -13 -341 13
-8 128 14 147 28 27 19 39 142 26 258 -6 54 -16 108 -21 119 -13 24 -75 26
-107 4z"/>
<path d="M3960 5730 c0 -6 12 -38 26 -72 24 -58 45 -155 59 -280 l6 -58 40 0
c30 0 47 7 66 26 25 25 26 29 20 118 -6 91 -38 221 -60 242 -7 6 -39 16 -71
23 -73 14 -86 14 -86 1z"/>
<path d="M6163 5733 c-29 -3 -46 -10 -53 -23 -19 -35 -35 -165 -32 -256 3 -87
5 -92 29 -103 14 -6 45 -14 68 -18 l43 -5 4 143 c4 126 7 152 30 207 l26 62
-37 -2 c-20 -1 -55 -3 -78 -5z"/>
<path d="M3813 5723 c-29 -6 -33 -19 -46 -164 -16 -193 -7 -208 144 -225 l61
-7 -7 49 c-4 27 -16 79 -27 115 -10 36 -22 104 -26 150 l-7 84 -35 1 c-19 1
-45 0 -57 -3z"/>
<path d="M6005 5682 c-46 -8 -154 -54 -159 -67 -10 -26 14 -82 51 -118 39 -40
78 -48 87 -19 7 22 45 207 43 208 -1 0 -11 -1 -22 -4z"/>
<path d="M4214 5663 c4 -10 19 -66 34 -125 17 -69 32 -108 40 -108 17 0 90 50
116 79 12 13 21 39 22 62 2 45 -11 56 -106 82 -106 29 -113 30 -106 10z"/>
<path d="M4482 5532 l-3 -55 89 -86 c49 -47 115 -121 147 -163 31 -43 63 -78
70 -78 19 0 105 80 105 97 0 40 -228 256 -321 304 -85 43 -84 43 -87 -19z"/>
<path d="M5564 5480 c-17 -11 -75 -72 -129 -135 -105 -123 -369 -380 -446
-432 -122 -84 -390 -191 -569 -227 -89 -17 -130 -32 -130 -46 0 -20 47 -38
127 -49 82 -12 83 -12 230 29 172 49 295 102 410 177 178 117 463 400 532 528
21 40 28 120 13 157 -7 16 -9 16 -38 -2z"/>
<path d="M5630 5167 c-19 -40 -36 -75 -38 -78 -5 -11 100 -59 128 -59 19 0 39
15 74 56 45 52 47 56 31 73 -20 23 -127 81 -146 80 -8 0 -30 -32 -49 -72z"/>
<path d="M4458 5189 c-32 -16 -58 -32 -58 -35 0 -13 105 -134 121 -139 10 -3
45 8 79 25 l62 31 -39 42 c-21 23 -50 57 -63 75 -13 17 -29 32 -34 32 -6 -1
-37 -14 -68 -31z"/>
<path d="M6637 5123 c-26 -13 -82 -31 -124 -39 -73 -15 -81 -20 -176 -100 -89
-75 -108 -86 -186 -111 -48 -15 -110 -27 -141 -28 -49 0 -55 2 -58 21 -4 26
-39 40 -215 82 -78 19 -156 45 -199 67 l-72 36 -50 -51 c-50 -50 -51 -51 -31
-67 37 -28 199 -102 260 -118 33 -9 103 -21 155 -27 l96 -12 -4 -33 c-5 -39
-10 -40 -138 -18 -158 28 -275 63 -358 110 -43 25 -83 45 -89 45 -6 0 -34 -18
-64 -41 -62 -46 -61 -49 16 -99 108 -69 324 -121 510 -123 102 -1 111 1 241
47 74 26 167 62 205 81 155 74 386 251 456 348 46 64 41 68 -34 30z"/>
<path d="M5925 5061 c-38 -10 -75 -29 -75 -40 0 -11 141 -81 164 -81 26 0 139
55 159 78 17 19 16 20 -28 31 -60 15 -183 22 -220 12z"/>
<path d="M4103 5048 c-46 -6 -83 -14 -83 -18 0 -11 37 -37 113 -80 l59 -33
106 33 c59 18 109 34 111 36 7 6 -30 33 -74 54 -44 22 -98 23 -232 8z"/>
<path d="M5101 4719 l-43 -19 4 -55 c5 -63 0 -66 -54 -30 -46 31 -59 31 -95 1
-19 -16 -46 -25 -88 -30 -131 -14 -225 -30 -225 -37 0 -12 97 -45 184 -63 263
-54 701 -32 901 45 l60 24 -120 7 c-154 10 -240 24 -288 49 -47 24 -64 24
-103 0 l-32 -19 -4 54 c-3 33 -12 62 -23 74 -21 24 -18 24 -74 -1z"/>
<path d="M4750 4175 c-25 -7 -93 -16 -152 -20 l-108 -8 0 -41 c0 -39 2 -42 44
-59 79 -33 74 0 77 -494 3 -476 5 -460 -51 -483 -27 -11 -30 -17 -30 -59 l0
-46 200 0 201 0 -3 35 c-3 31 -9 38 -51 58 -31 15 -51 32 -58 50 -7 16 -9 103
-7 224 l3 197 30 32 c58 61 172 89 223 53 12 -8 28 -27 36 -42 16 -33 31 -330
21 -426 -7 -59 -10 -67 -31 -72 -30 -8 -44 -32 -44 -78 l0 -36 201 0 202 0 -6
38 c-4 20 -14 42 -23 47 -76 46 -79 49 -86 105 -3 30 -7 147 -7 260 -1 193 -3
208 -25 255 -42 92 -114 135 -223 135 -82 0 -150 -28 -216 -89 -24 -23 -46
-41 -48 -41 -3 0 -3 117 -1 260 4 216 2 260 -9 259 -8 -1 -34 -7 -59 -14z"/>
<path d="M7113 4176 c-55 -25 -93 -109 -78 -174 7 -34 47 -82 68 -82 14 0 37
61 37 99 0 11 4 21 9 21 4 0 6 11 3 25 -2 14 0 25 6 25 13 0 22 38 10 42 -6 2
1 9 16 16 15 7 26 8 26 2 0 -6 6 -10 13 -10 8 0 19 -12 25 -26 7 -14 8 -23 2
-19 -5 3 -10 1 -10 -4 0 -6 7 -11 16 -11 13 0 9 -7 -12 -27 -18 -17 -24 -28
-16 -31 6 -2 12 -10 12 -17 0 -7 6 -16 13 -18 8 -4 8 -8 2 -14 -5 -4 -16 -16
-24 -25 -11 -15 -11 -18 2 -18 41 0 66 145 34 194 -36 54 -100 76 -154 52z
m154 -158 c-3 -8 -6 -5 -6 6 -1 11 2 17 5 13 3 -3 4 -12 1 -19z"/>
<path d="M8920 4149 c-45 -18 -60 -39 -60 -85 0 -36 5 -47 35 -73 39 -34 60
-38 100 -19 46 21 69 93 45 139 -11 20 -60 49 -82 48 -7 0 -24 -5 -38 -10z
m80 -29 c31 -31 28 -103 -5 -124 -34 -22 -50 -20 -80 11 -39 43 -31 93 20 121
29 16 42 15 65 -8z"/>
<path d="M8926 4098 c-9 -12 -16 -29 -16 -38 1 -27 27 -52 52 -48 19 3 23 10
26 47 5 61 -31 83 -62 39z m38 -24 c10 -26 7 -44 -8 -44 -14 0 -29 37 -20 52
8 13 21 9 28 -8z"/>
<path d="M9002 4070 c0 -19 2 -27 5 -17 2 9 2 25 0 35 -3 9 -5 1 -5 -18z"/>
<path d="M5325 4095 c4 -27 9 -51 10 -53 2 -2 25 -9 51 -16 38 -9 53 -20 68
-45 30 -51 196 -529 335 -961 l18 -55 63 0 64 0 42 130 c23 72 61 180 84 240
24 61 57 151 75 200 l33 90 27 -60 c24 -53 58 -154 170 -499 l32 -99 69 2 c37
1 71 4 75 7 3 2 9 21 12 41 4 21 34 115 67 208 34 94 74 211 90 260 55 176
160 468 175 491 8 13 28 30 44 39 30 15 34 23 46 83 l7 32 -139 0 c-76 0 -162
3 -190 6 l-53 7 0 -57 c0 -52 2 -56 23 -56 33 0 67 -28 67 -55 0 -30 -54 -218
-132 -460 -58 -178 -62 -188 -69 -153 -5 20 -42 134 -82 255 -67 196 -119 369
-143 477 l-9 38 -150 -1 c-82 -1 -151 -3 -152 -5 -2 -2 -1 -22 3 -45 5 -30 11
-41 24 -41 26 0 71 -39 86 -76 27 -65 18 -117 -68 -381 -46 -139 -85 -253 -88
-253 -11 0 -210 605 -210 637 0 31 29 62 68 74 8 3 15 24 18 51 l3 47 -137 -5
c-75 -3 -181 -2 -235 3 l-98 9 6 -51z"/>
<path d="M1310 4120 c0 -8 3 -31 6 -51 5 -30 11 -38 33 -42 42 -9 71 -38 81
-82 5 -22 10 -206 10 -408 0 -298 -3 -374 -14 -402 -15 -35 -67 -75 -98 -75
-15 0 -18 -9 -18 -47 l0 -48 438 -1 439 -1 11 87 c7 47 21 122 32 165 28 108
28 105 -29 105 l-49 0 -37 -75 c-21 -42 -51 -87 -68 -101 -30 -25 -31 -25
-199 -22 -137 2 -171 6 -178 18 -5 8 -10 88 -10 178 l0 162 113 0 c61 0 118
-4 125 -9 8 -4 16 -27 19 -50 l6 -41 56 0 56 0 1 180 1 180 -64 0 c-60 0 -64
-1 -62 -22 1 -13 1 -38 1 -55 l-2 -33 -126 0 -126 0 4 173 3 172 162 0 c184 0
180 1 228 -88 34 -63 39 -67 88 -67 l37 0 0 68 c0 38 3 110 6 159 l7 91 -442
-2 c-385 -1 -441 -3 -441 -16z"/>
<path d="M4170 4023 c-8 -4 -49 -32 -92 -64 -65 -50 -79 -66 -92 -107 -13 -37
-27 -56 -61 -80 -35 -25 -45 -38 -46 -62 -1 -16 -2 -36 -3 -42 -1 -9 19 -15
57 -18 l57 -5 3 -255 c2 -290 7 -312 85 -382 97 -88 241 -74 354 33 38 36 40
42 35 80 -5 37 -39 89 -58 89 -3 0 -9 -9 -12 -19 -9 -37 -96 -78 -141 -67 -47
12 -54 51 -57 296 l-3 225 116 3 117 3 5 27 c3 15 8 46 11 69 l7 42 -124 3
-123 3 0 114 c0 113 -4 126 -35 114z"/>
<path d="M7703 3809 c-181 -35 -279 -173 -228 -320 33 -93 91 -138 262 -205
95 -36 143 -75 143 -115 0 -10 -13 -33 -29 -51 -26 -29 -34 -32 -83 -32 -71 1
-111 23 -184 100 -33 35 -66 64 -72 64 -22 0 -43 -62 -49 -144 -6 -81 -5 -84
19 -100 67 -44 251 -74 348 -56 113 21 184 69 224 155 61 127 11 247 -129 318
-27 14 -85 40 -127 57 -97 39 -128 67 -128 114 0 59 41 82 131 74 56 -6 82
-25 111 -81 17 -35 22 -38 55 -35 36 3 37 4 49 64 7 34 19 75 28 92 32 62 29
65 -111 90 -134 24 -161 25 -230 11z"/>
<path d="M2515 3786 c-57 -19 -101 -37 -173 -72 -1 -1 21 -43 50 -93 l52 -92
40 47 c52 61 103 83 186 84 99 0 129 -29 140 -132 l6 -58 -81 0 c-147 0 -248
-32 -333 -105 -57 -50 -82 -101 -82 -170 0 -145 102 -245 251 -245 89 0 150
23 205 77 36 34 49 42 55 31 5 -7 9 -18 9 -25 0 -22 51 -72 78 -77 15 -2 68 1
117 7 l90 12 3 57 3 56 -56 7 c-45 6 -56 11 -60 29 -3 11 -6 131 -7 266 -3
231 -4 247 -25 287 -51 94 -138 133 -297 133 -78 -1 -117 -6 -171 -24z m295
-506 c0 -73 -17 -111 -65 -140 -42 -26 -132 -37 -164 -20 -25 13 -51 66 -51
104 0 33 54 94 94 105 17 5 66 10 109 10 l77 1 0 -60z"/>
<path d="M3170 3788 c0 -40 21 -69 63 -87 24 -11 47 -27 51 -36 3 -9 6 -137 6
-284 0 -247 -1 -269 -18 -284 -10 -10 -25 -17 -33 -17 -35 0 -59 -30 -59 -73
l0 -42 226 -2 c196 -1 225 1 220 14 -3 8 -6 24 -6 36 0 16 -13 28 -51 47 -28
14 -56 34 -62 45 -16 29 -22 321 -8 373 14 51 64 110 108 128 45 19 48 19 93
-22 21 -20 47 -34 56 -32 15 3 63 114 81 184 8 34 -49 68 -112 68 -64 0 -117
-26 -182 -89 l-52 -50 -3 68 -3 69 -158 1 c-141 2 -157 0 -157 -15z"/>
<path d="M7200 3799 c-25 -4 -96 -8 -157 -8 -101 -1 -113 -3 -112 -18 1 -35
15 -54 54 -76 63 -36 65 -43 65 -324 l0 -251 -25 -30 c-14 -16 -36 -33 -50
-36 -22 -6 -25 -12 -25 -49 l0 -42 215 0 215 0 0 38 c0 36 -3 39 -51 62 -29
13 -56 30 -60 37 -5 7 -9 169 -9 361 0 191 -3 346 -7 346 -5 -1 -28 -5 -53
-10z"/>
<path d="M8463 3800 c-63 -15 -141 -61 -187 -110 -158 -169 -155 -476 6 -626
89 -83 201 -119 348 -112 103 5 165 31 250 107 l55 50 -19 35 c-10 19 -30 46
-45 60 l-27 26 -34 -37 c-50 -52 -102 -73 -185 -73 -86 0 -136 21 -188 79 -39
43 -57 78 -57 110 0 17 18 19 251 23 212 4 253 7 266 21 23 22 22 145 -1 217
-34 107 -120 196 -219 225 -53 16 -159 18 -214 5z m173 -159 c37 -23 61 -70
66 -131 l3 -45 -169 -3 -168 -2 6 36 c11 53 21 76 52 113 34 41 55 50 124 50
37 1 65 -5 86 -18z"/>
<path d="M2400 2378 l0 -228 55 0 55 0 0 228 0 227 -55 0 -55 0 0 -227z"/>
<path d="M2710 2600 c-1 -3 -2 -105 -3 -227 l-2 -223 53 0 52 0 0 65 0 65 35
0 c32 0 39 -6 82 -70 31 -47 51 -69 61 -65 7 3 33 5 58 5 l44 0 -45 69 c-25
38 -45 75 -45 81 0 7 11 21 25 32 39 31 58 75 52 125 -5 46 -42 104 -80 125
-21 12 -287 29 -287 18z m243 -121 c9 -12 17 -32 17 -44 0 -41 -25 -55 -96
-55 l-64 0 0 59 c0 68 4 72 75 66 35 -3 55 -11 68 -26z"/>
<path d="M3395 2603 l-150 -3 3 -225 3 -225 169 0 170 0 0 50 0 50 -120 0
-120 0 0 34 c0 42 9 46 110 46 l79 0 7 34 c3 19 3 39 -1 45 -4 7 -45 11 -101
11 l-94 0 0 39 c0 38 0 38 46 45 26 3 78 6 115 6 l69 0 0 50 c0 42 -3 50 -17
48 -10 -1 -85 -4 -168 -5z"/>
<path d="M4800 2392 c0 -120 4 -222 8 -229 4 -7 27 -11 53 -10 l45 2 -4 124
c-3 90 -1 122 7 117 6 -4 38 -42 70 -84 87 -113 128 -148 179 -155 l43 -5 -3
230 -3 230 -35 -6 c-19 -3 -41 -6 -47 -6 -9 0 -13 -22 -13 -77 0 -89 -9 -155
-20 -151 -5 2 -25 26 -47 54 -21 28 -63 78 -93 111 -47 51 -61 61 -97 66 l-43
5 0 -216z"/>
<path d="M6263 2437 c-1 -94 -4 -198 -8 -229 l-6 -58 177 0 176 0 -6 23 c-3
12 -6 37 -6 55 l0 32 -103 0 -104 0 -6 107 c-4 58 -7 137 -7 175 l0 68 -52 0
-53 0 -2 -173z"/>
<path d="M6736 2579 c-3 -17 -6 -44 -6 -60 l0 -28 70 6 70 6 2 -159 c0 -87 1
-164 1 -171 0 -6 18 -13 43 -15 l43 -3 6 70 c4 38 5 116 3 173 l-3 102 73 0
72 0 0 55 0 55 -184 0 -183 0 -7 -31z"/>
<path d="M7284 2379 l1 -231 120 4 c129 4 153 11 228 71 50 39 77 94 77 157 0
62 -15 92 -72 147 -69 67 -114 83 -244 83 l-110 0 0 -231z m206 110 c80 -18
123 -84 100 -155 -17 -51 -60 -74 -137 -74 l-63 0 0 120 0 120 28 0 c15 0 47
-5 72 -11z"/>
<path d="M3760 2373 l0 -228 165 0 165 0 0 55 0 55 -109 0 c-60 0 -112 3 -116
6 -3 4 -7 82 -8 173 l-2 166 -47 0 -48 0 0 -227z"/>
<path d="M4366 2573 c-4 -15 -36 -95 -73 -177 -36 -82 -71 -171 -78 -198 l-13
-48 52 0 53 0 12 40 c6 22 15 40 19 40 4 0 47 2 95 4 97 4 106 -1 121 -67 6
-24 10 -26 34 -20 15 4 39 7 55 6 15 -1 27 0 27 3 0 2 -12 28 -27 57 -15 29
-59 126 -98 217 l-72 165 -50 3 c-48 3 -51 2 -57 -25z m89 -166 c38 -66 35
-77 -25 -77 -27 0 -50 3 -50 7 0 18 35 113 41 113 5 0 20 -20 34 -43z"/>
<path d="M5378 2376 l3 -226 102 0 c135 0 171 11 228 70 58 60 77 122 59 202
-13 65 -43 110 -94 146 -37 25 -46 27 -170 30 l-131 4 3 -226z m215 110 c43
-17 67 -56 67 -105 0 -83 -40 -121 -130 -121 l-50 0 0 120 0 120 40 0 c22 0
55 -6 73 -14z"/>
<path d="M1385 2418 c-26 -15 -35 -28 -35 -55 0 -49 22 -53 360 -55 l313 -3
20 27 20 26 -22 36 -23 36 -306 0 c-210 -1 -313 -4 -327 -12z"/>
<path d="M8153 2412 c-18 -18 -16 -56 3 -94 l16 -30 76 6 c43 3 195 9 339 12
173 5 266 11 272 18 21 25 22 62 4 78 -16 14 -62 17 -357 20 -272 2 -342 0
-353 -10z"/>
</g>
</svg>
